Coordinates
version=1
nRows=60
nColumns=12
inDegrees=yes

Units are S.I. units (second, meters, Newtons, ...)
Angles are in degrees

endheader
time	SC_y	SC_z	SC_x	AC_y	AC_z	AC_x	GH_y	GH_z	GH_yy	EL_x	PS_y
       0.0              -57.11          35.71          45.05          42.74          3.386           19.2          37.96           73.3          150.7          17.27          112.1
    0.0359              -57.11          35.71          45.04          42.74          3.387           19.2          37.95           73.3          150.7          17.27          112.0
    0.0718              -57.11          35.71          45.04          42.74          3.387           19.2          37.94           73.3          150.6          17.27          112.0
    0.1077              -57.11          35.71          45.03          42.74          3.388           19.2          37.93           73.3          150.6          17.28          112.0
    0.1436               -57.1          35.71          45.02          42.75          3.389           19.2          37.91          73.31          150.6          17.28          112.0
    0.1795               -57.1          35.71          45.02          42.75          3.389           19.2           37.9          73.31          150.5          17.28          112.0
    0.2154               -57.1          35.71          45.01          42.75           3.39          19.19          37.88          73.31          150.5          17.28          112.0
    0.2513               -57.1          35.72           45.0          42.76          3.391          19.19          37.87          73.31          150.4          17.28          111.9
    0.2872               -57.1          35.72          44.99          42.76          3.392          19.19          37.85          73.31          150.4          17.28          111.9
    0.3231              -57.09          35.72          44.98          42.77          3.393          19.19          37.83          73.31          150.3          17.28          111.9
     0.359              -57.09          35.72          44.97          42.77          3.394          19.19          37.81          73.31          150.3          17.29          111.9
    0.3949              -57.09          35.72          44.96          42.78          3.395          19.19          37.79          73.31          150.2          17.29          111.9
    0.4308              -57.08          35.72          44.95          42.78          3.396          19.19          37.77          73.31          150.1          17.29          111.8
    0.4667              -57.08          35.72          44.94          42.79          3.398          19.19          37.74          73.31          150.1          17.29          111.8
    0.5026              -57.08          35.72          44.93          42.79          3.399          19.18          37.71          73.32          150.0           17.3          111.8
    0.5385              -57.07          35.72          44.91           42.8          3.401          19.18          37.68          73.32          149.9           17.3          111.7
    0.5744              -57.07          35.73           44.9          42.81          3.402          19.18          37.65          73.32          149.8           17.3          111.7
    0.6103              -57.06          35.73          44.88          42.82          3.404          19.18          37.61          73.32          149.7           17.3          111.6
    0.6462              -57.06          35.73          44.86          42.83          3.406          19.18          37.58          73.32          149.6          17.31          111.6
    0.6821              -57.05          35.73          44.84          42.84          3.409          19.17          37.53          73.32          149.5          17.31          111.5
     0.718              -57.04          35.73          44.82          42.85          3.411          19.17          37.49          73.33          149.3          17.32          111.5
    0.7539              -57.04          35.73          44.79          42.86          3.414          19.17          37.44          73.33          149.2          17.32          111.4
    0.7898              -57.03          35.74          44.76          42.87          3.417          19.17          37.38          73.33          149.0          17.33          111.4
    0.8257              -57.02          35.74          44.73          42.89           3.42          19.16          37.32          73.33          148.9          17.33          111.3
    0.8616              -57.01          35.74           44.7           42.9          3.424          19.16          37.25          73.34          148.7          17.34          111.2
    0.8975               -57.0          35.75          44.66          42.92          3.428          19.15          37.17          73.34          148.4          17.34          111.1
    0.9334              -56.99          35.75          44.62          42.94          3.432          19.15          37.08          73.35          148.2          17.35          111.0
    0.9693              -56.97          35.76          44.57          42.96          3.437          19.14          36.98          73.35          147.9          17.36          110.9
     1.005              -56.96          35.76          44.52          42.99          3.443          19.14          36.87          73.36          147.6          17.37          110.7
     1.041              -56.94          35.77          44.46          43.02           3.45          19.13          36.75          73.36          147.3          17.38          110.6
     1.077              -56.92          35.77          44.39          43.05          3.457          19.12          36.61          73.37          146.8          17.39          110.4
     1.113               -56.9          35.78          44.31          43.09          3.466          19.11          36.44          73.38          146.4          17.41          110.2
     1.149              -56.87          35.79          44.22          43.13          3.476           19.1          36.25          73.39          145.8          17.43          110.0
     1.185              -56.84           35.8          44.11          43.18          3.487          19.09          36.03           73.4          145.2          17.45          109.7
     1.221               -56.8          35.81          43.99          43.24          3.501          19.07          35.77          73.41          144.5          17.47          109.4
     1.256              -56.76          35.82          43.84          43.31          3.517          19.05          35.47          73.42          143.6           17.5          109.0
     1.292              -56.71          35.84          43.67          43.39          3.536          19.03          35.11          73.44          142.6          17.53          108.6
     1.328              -56.65          35.86          43.46          43.49          3.558          19.01          34.67          73.46          141.4          17.57          108.1
     1.364              -56.58          35.88           43.2          43.61          3.586          18.98          34.15          73.49          139.9          17.61          107.5
       1.4              -56.49          35.91          42.89          43.76          3.619          18.94          33.51          73.52          138.1          17.67          106.7
     1.436              -56.38          35.95          42.51          43.94          3.661           18.9          32.72          73.56          135.8          17.74          105.7
     1.472              -56.24          35.99          42.03          44.17          3.712          18.84          31.73           73.6          133.0          17.83          104.5
     1.508              -56.06          36.05          41.43          44.46          3.777          18.77          30.49          73.66          129.5          17.94          103.0
     1.544              -55.84          36.12          40.67          44.82           3.86          18.68          28.91          73.74          125.1          18.08          101.1
      1.58              -55.56          36.21          39.69          45.28          3.966          18.56          26.89          73.84          119.3          18.26          98.69
     1.615              -55.19          36.33          38.44          45.88          4.101          18.41           24.3          73.96          112.0           18.5          95.56
     1.651              -54.73          36.48          36.84          46.64          4.275          18.22          20.98          74.12          102.6          18.79          91.56
     1.687              -54.15          36.67          34.82           47.6          4.493          17.98          16.82          74.32           90.8          19.16          86.53
     1.723              -53.43           36.9          32.37          48.77          4.758          17.68          11.74          74.57          76.42          19.62           80.4
     1.759              -52.61          37.16          29.52          50.13          5.066          17.34          5.858          74.85          59.76          20.14           73.3
     1.795              -51.72          37.45          26.44          51.59            5.4          16.98        -0.5124          75.15          41.71          20.71          65.61
     1.831              -50.82          37.74          23.36          53.06          5.733          16.61         -6.883          75.46          23.67          21.28          57.92
     1.867               -50.0           38.0          20.51          54.41          6.041          16.27         -12.77          75.74          7.002          21.81          50.81
     1.903              -49.29          38.23          18.06          55.58          6.307          15.97         -17.84          75.99         -7.376          22.26          44.69
     1.939               -48.7          38.42          16.04          56.54          6.524          15.73         -22.01          76.19         -19.17          22.64          39.66
     1.974              -48.24          38.57          14.44           57.3          6.698          15.54         -25.32          76.35         -28.56          22.93          35.66
      2.01              -47.88          38.69          13.19           57.9          6.834          15.39         -27.91          76.47          -35.9          23.16          32.53
     2.046              -47.59          38.78          12.21          58.36          6.939          15.28         -29.94          76.57         -41.63          23.34          30.09
     2.082              -47.37          38.85          11.45          58.73          7.022          15.18         -31.51          76.65          -46.1          23.49          28.18
     2.118               -47.2          38.91          10.85          59.01          7.087          15.11         -32.76          76.71         -49.62           23.6          26.68
